<?xml version="1.0" encoding="UTF-8" standalone="no"?>
<!-- Created with Inkscape (http://www.inkscape.org/) -->

<svg
   xmlns:dc="http://purl.org/dc/elements/1.1/"
   xmlns:cc="http://creativecommons.org/ns#"
   xmlns:rdf="http://www.w3.org/1999/02/22-rdf-syntax-ns#"
   xmlns:svg="http://www.w3.org/2000/svg"
   xmlns="http://www.w3.org/2000/svg"
   xmlns:xlink="http://www.w3.org/1999/xlink"
   xmlns:sodipodi="http://sodipodi.sourceforge.net/DTD/sodipodi-0.dtd"
   xmlns:inkscape="http://www.inkscape.org/namespaces/inkscape"
   width="210mm"
   height="297mm"
   viewBox="0 0 210 297"
   version="1.1"
   id="svg8"
   inkscape:version="0.92.2 2405546, 2018-03-11"
   sodipodi:docname="crab.svg">
  <defs
     id="defs2" />
  <sodipodi:namedview
     id="base"
     pagecolor="#ffffff"
     bordercolor="#666666"
     borderopacity="1.0"
     inkscape:pageopacity="0.0"
     inkscape:pageshadow="2"
     inkscape:zoom="0.7"
     inkscape:cx="-855.71429"
     inkscape:cy="880"
     inkscape:document-units="mm"
     inkscape:current-layer="layer1"
     showgrid="false"
     inkscape:snap-global="false"
     inkscape:window-width="1920"
     inkscape:window-height="1027"
     inkscape:window-x="0"
     inkscape:window-y="0"
     inkscape:window-maximized="1" />
  <metadata
     id="metadata5">
    <rdf:RDF>
      <cc:Work
         rdf:about="">
        <dc:format>image/svg+xml</dc:format>
        <dc:type
           rdf:resource="http://purl.org/dc/dcmitype/StillImage" />
        <dc:title></dc:title>
      </cc:Work>
    </rdf:RDF>
  </metadata>
  <g
     inkscape:label="Layer 1"
     inkscape:groupmode="layer"
     id="layer1">
    <rect
       style="fill:#010101;fill-opacity:1;stroke:none;stroke-width:6.29545403;stroke-miterlimit:4;stroke-dasharray:none;stroke-opacity:1;paint-order:markers stroke fill"
       id="rect817"
       width="265.55576"
       height="265.55576"
       x="-328.94751"
       y="-63.697514" />
    <g
       id="g4561">
      <path
         sodipodi:nodetypes="cccscccscssc"
         inkscape:connector-curvature="0"
         id="path815"
         d="m -196.8877,42.244047 c 39.45783,0.590131 56.10693,8.498903 67.31756,15.270238 3.53967,-14.411219 5.2181,-20.849135 10.8857,-36.285713 0,0 -35.60734,-4.400389 -56.09166,-20.0327387 -6.81373,-5.1998085 -6.42559,-6.4255942 -6.42559,-6.4255942 19.66519,3.8223347 32.70318,-6.6174751 48.00298,-1.511905 -14.59261,-15.3593141 -37.66167,-18.8291901 -55.94048,-29.1041651 0,0 29.15572,-15.350672 44.60119,-13.607145 33.3225,3.761536 68.584595,43.6832288 67.657652,54.8065474 C -84.045066,35.000368 -91.883698,49.433805 -104.01895,74.75 c -14.11368,29.44341 -19.88644,51.98363 -38.55357,76.72917 -9.98572,13.23729 -37.4845,28.75625 -54.31518,27.97024"
         style="fill:#ffffff;fill-opacity:1;stroke:none;stroke-width:0.26458332px;stroke-linecap:butt;stroke-linejoin:miter;stroke-opacity:1" />
      <path
         sodipodi:nodetypes="csc"
         inkscape:connector-curvature="0"
         id="path4524"
         d="m -171.67668,45.570239 c -1.13393,-13.985121 2.99772,-22.642922 11.71726,-22.300596 11.45702,0.449798 9.82739,16.630951 5.29167,25.70238"
         style="fill:#ffffff;fill-opacity:1;stroke:none;stroke-width:0.26458332px;stroke-linecap:butt;stroke-linejoin:miter;stroke-opacity:1" />
      <path
         sodipodi:nodetypes="ccc"
         inkscape:connector-curvature="0"
         id="path4526"
         d="m -123.22022,102.59767 c 25.272588,5.94401 58.829278,-27.862246 53.294628,-39.687492 -3.085475,-3.08548 -21.379532,19.819859 -54.050588,18.898799"
         style="fill:#ffffff;stroke:none;stroke-width:0.26458332px;stroke-linecap:butt;stroke-linejoin:miter;stroke-opacity:1;fill-opacity:1" />
      <path
         sodipodi:nodetypes="ccc"
         inkscape:connector-curvature="0"
         id="path4526-3"
         d="m -132.71961,105.23837 c 25.2726,-5.944005 65.254892,19.92474 59.720243,31.74999 -3.085476,3.08548 -33.852753,-14.15022 -66.523823,-13.22916"
         style="fill:#ffffff;stroke:none;stroke-width:0.26458332px;stroke-linecap:butt;stroke-linejoin:miter;stroke-opacity:1;fill-opacity:1" />
      <path
         sodipodi:nodetypes="ccc"
         inkscape:connector-curvature="0"
         id="path4526-6"
         d="m -134.83622,125.64909 c 25.27259,-5.94401 51.269721,28.24022 45.735075,40.06547 -7.243186,4.97536 -19.111635,-23.59962 -51.782705,-22.67856"
         style="fill:#ffffff;stroke:none;stroke-width:0.26458332px;stroke-linecap:butt;stroke-linejoin:miter;stroke-opacity:1;fill-opacity:1" />
      <path
         sodipodi:nodetypes="ccc"
         inkscape:connector-curvature="0"
         id="path4526-7"
         d="m -140.78393,143.62999 c 19.93198,4.29403 28.9413,35.00216 21.0322,41.52792 -3.22816,1.14996 -8.33995,-19.0792 -31.82934,-29.42848"
         style="fill:#ffffff;stroke:none;stroke-width:0.20778908px;stroke-linecap:butt;stroke-linejoin:miter;stroke-opacity:1;fill-opacity:1" />
    </g>
    <use
       x="0"
       y="0"
       xlink:href="#g4561"
       id="use4563"
       transform="matrix(-1,0,0,1,-392.06035,0)"
       width="100%"
       height="100%" />
  </g>
</svg>
