<?xml version="1.0" encoding="UTF-8" standalone="no"?>
<!-- Created with Inkscape (http://www.inkscape.org/) -->

<svg
   xmlns:dc="http://purl.org/dc/elements/1.1/"
   xmlns:cc="http://creativecommons.org/ns#"
   xmlns:rdf="http://www.w3.org/1999/02/22-rdf-syntax-ns#"
   xmlns:svg="http://www.w3.org/2000/svg"
   xmlns="http://www.w3.org/2000/svg"
   xmlns:sodipodi="http://sodipodi.sourceforge.net/DTD/sodipodi-0.dtd"
   xmlns:inkscape="http://www.inkscape.org/namespaces/inkscape"
   width="210mm"
   height="297mm"
   viewBox="0 0 210 297"
   version="1.1"
   id="svg8"
   inkscape:version="0.92.2 2405546, 2018-03-11"
   sodipodi:docname="greasecrab.svg">
  <defs
     id="defs2" />
  <sodipodi:namedview
     id="base"
     pagecolor="#ffffff"
     bordercolor="#666666"
     borderopacity="1.0"
     inkscape:pageopacity="0.0"
     inkscape:pageshadow="2"
     inkscape:zoom="0.35"
     inkscape:cx="-1340.5148"
     inkscape:cy="297.13265"
     inkscape:document-units="mm"
     inkscape:current-layer="layer1"
     showgrid="false"
     inkscape:snap-global="false"
     inkscape:window-width="1920"
     inkscape:window-height="1027"
     inkscape:window-x="0"
     inkscape:window-y="0"
     inkscape:window-maximized="1" />
  <metadata
     id="metadata5">
    <rdf:RDF>
      <cc:Work
         rdf:about="">
        <dc:format>image/svg+xml</dc:format>
        <dc:type
           rdf:resource="http://purl.org/dc/dcmitype/StillImage" />
        <dc:title></dc:title>
      </cc:Work>
    </rdf:RDF>
  </metadata>
  <g
     inkscape:label="Layer 1"
     inkscape:groupmode="layer"
     id="layer1">
    <rect
       style="fill:#000000;fill-opacity:1;stroke:none;stroke-width:12.54699993;stroke-miterlimit:4;stroke-dasharray:none;stroke-opacity:1;paint-order:stroke markers fill"
       id="rect815"
       width="445.25595"
       height="445.25595"
       x="-619.88098"
       y="3.6904759"
       inkscape:export-xdpi="2.74"
       inkscape:export-ydpi="2.74" />
    <path
       style="fill:#ff5556;fill-opacity:1;stroke:none;stroke-width:0.25338653px;stroke-linecap:butt;stroke-linejoin:miter;stroke-opacity:1"
       d="m -445.86654,91.195701 c 0,0 29.7055,4.694023 45.06606,6.950141 18.42755,2.706598 35.60799,-3.149962 45.48663,16.488018 13.30168,26.44277 -18.9767,26.99702 -46.93859,13.59864 -32.85876,-15.74479 -43.6141,-37.036799 -43.6141,-37.036799 z"
       id="path825"
       inkscape:connector-curvature="0"
       sodipodi:nodetypes="csssc" />
    <path
       style="fill:#ff5556;fill-opacity:1;stroke:none;stroke-width:4.78840685;stroke-linecap:butt;stroke-linejoin:miter;stroke-miterlimit:4;stroke-dasharray:none;stroke-opacity:1;paint-order:markers stroke fill"
       d="m -505.19358,42.928839 c 0,0 64.88179,-28.421312 118.46605,-21.065769 48.58862,6.669789 75.47438,35.237232 78.49564,73.519667 1.8712,23.709743 -29.65134,59.773173 -58.88593,27.667683 -14.13533,-15.52344 -10.17331,-36.559955 -43.33776,-49.560488 -48.23876,-18.909688 -94.738,-30.561093 -94.738,-30.561093 z"
       id="path823"
       inkscape:connector-curvature="0"
       sodipodi:nodetypes="cssssc" />
    <path
       style="fill:#ff5556;fill-opacity:1;stroke:none;stroke-width:0.27947801px;stroke-linecap:butt;stroke-linejoin:miter;stroke-opacity:1"
       d="m -505.21744,87.314867 c 0,0 -8.30292,41.748373 -14.56837,58.068803 -7.3741,19.20832 -11.04458,29.95687 -1.71696,52.6015 17.58925,42.70131 39.88428,-7.32523 36.3702,-38.68693 -4.42626,-39.50267 -20.08487,-71.983373 -20.08487,-71.983373 z"
       id="path825-3"
       inkscape:connector-curvature="0"
       sodipodi:nodetypes="csssc" />
    <path
       style="fill:#ff5556;fill-opacity:1;stroke:none;stroke-width:5.28147459;stroke-linecap:butt;stroke-linejoin:miter;stroke-miterlimit:4;stroke-dasharray:none;stroke-opacity:1;paint-order:markers stroke fill"
       d="m -527.67543,17.595646 c 0,0 -64.01175,36.366343 -78.13127,106.286344 -7.56165,37.44538 5.01004,88.15899 42.16339,110.11849 23.01048,13.60033 74.59817,1.00953 56.32659,-43.25974 -8.83459,-21.40481 -40.05805,-42.13571 -36.2448,-80.61036 3.77486,-38.087312 15.88609,-92.534734 15.88609,-92.534734 z"
       id="path823-6"
       inkscape:connector-curvature="0"
       sodipodi:nodetypes="cssssc" />
    <path
       style="fill:#ff5556;fill-opacity:1;stroke:none;stroke-width:0.25338653px;stroke-linecap:butt;stroke-linejoin:miter;stroke-opacity:1"
       d="m -491.60383,254.5485 c 0,0 -39.42035,-9.2442 -64.65702,4.14109 -37.42874,19.85186 -43.8218,83.15494 -43.8218,83.15494 0,0 45.8891,-52.77576 60.3411,-52.73267 14.452,0.0431 56.1945,0.0406 56.1945,0.0406 z"
       id="path845"
       inkscape:connector-curvature="0"
       sodipodi:nodetypes="cscccc" />
    <path
       style="fill:#ff5556;fill-opacity:1;stroke:none;stroke-width:0.25338653px;stroke-linecap:butt;stroke-linejoin:miter;stroke-opacity:1"
       d="m -483.54705,289.15242 c 0,0 -33.47037,3.72381 -52.06981,25.40597 -28.9929,33.79827 -9.95102,83.15658 -9.95102,83.15658 0,0 21.40913,-58.18771 34.89973,-63.37091 13.4906,-5.18323 47.14013,-15.8389 47.14013,-15.8389 z"
       id="path845-7"
       inkscape:connector-curvature="0"
       sodipodi:nodetypes="cscccc" />
    <path
       style="fill:#ff5556;fill-opacity:1;stroke:none;stroke-width:0.21060106px;stroke-linecap:butt;stroke-linejoin:miter;stroke-opacity:1"
       d="m -463.52802,318.50516 c 0,0 -24.70561,11.75188 -34.87176,33.20839 -15.9044,33.56758 13.00482,68.3827 13.00482,68.3827 0,0 2.34531,-51.4787 11.73158,-58.97405 9.38629,-7.49535 33.36931,-24.39031 33.36931,-24.39031 z"
       id="path845-5"
       inkscape:connector-curvature="0"
       sodipodi:nodetypes="cscccc" />
    <path
       style="fill:#ff5556;fill-opacity:1;stroke:none;stroke-width:0.19815108px;stroke-linecap:butt;stroke-linejoin:miter;stroke-opacity:1"
       d="m -440.29407,336.73189 c 0,0 -21.96027,15.72939 -24.85687,37.88025 -2.89664,22.15089 26.52845,59.88005 26.52845,59.88005 0,0 -8.85107,-47.671 -1.85209,-56.54464 6.99901,-8.87366 25.36446,-29.47922 25.36446,-29.47922 z"
       id="path845-3"
       inkscape:connector-curvature="0"
       sodipodi:nodetypes="cscccc" />
    <path
       style="fill:#ff5556;fill-opacity:1;stroke:none;stroke-width:0.25338653px;stroke-linecap:butt;stroke-linejoin:miter;stroke-opacity:1"
       d="m -329.58752,167.03258 c 0,0 11.23463,-37.71309 37.50673,-48.93053 26.27215,-11.21745 85.49347,1.95955 85.49347,1.95955 0,0 -55.22129,11.13647 -71.0426,30.82998 -8.50795,11.68234 -28.80873,43.09418 -28.80873,43.09418 z"
       id="path845-56"
       inkscape:connector-curvature="0"
       sodipodi:nodetypes="cscccc" />
    <path
       style="fill:#ff5556;fill-opacity:1;stroke:none;stroke-width:0.25338653px;stroke-linecap:butt;stroke-linejoin:miter;stroke-opacity:1"
       d="m -310.5362,198.71361 c 0,0 18.13021,-27.49881 45.40741,-35.98466 45.26217,-14.08092 79.29535,26.94971 79.29535,26.94971 0,0 -56.22757,-13.5013 -72.22927,4.09835 -10.50264,9.92759 -34.64949,35.67175 -34.64949,35.67175 z"
       id="path845-56-2"
       inkscape:connector-curvature="0"
       sodipodi:nodetypes="cscccc" />
    <path
       style="fill:#ff5556;fill-opacity:1;stroke:none;stroke-width:0.23601429px;stroke-linecap:butt;stroke-linejoin:miter;stroke-opacity:1"
       d="m -297.54399,230.56041 c 0,0 21.60247,-22.23651 48.12033,-24.42674 33.11977,-2.73552 67.38316,39.30331 67.38316,39.30331 0,0 -50.22818,-20.74115 -66.69051,-9.65251 -11.42765,7.11436 -38.24254,26.13595 -38.24254,26.13595 z"
       id="path845-56-9"
       inkscape:connector-curvature="0"
       sodipodi:nodetypes="cscccc" />
    <path
       style="fill:#ff5556;fill-opacity:1;stroke:none;stroke-width:0.22026235px;stroke-linecap:butt;stroke-linejoin:miter;stroke-opacity:1"
       d="m -281.68767,251.96382 c 0,0 28.56239,-9.26208 50.28738,2.76566 21.72502,12.02774 36.05338,63.24734 36.05338,63.24734 0,0 -36.79905,-39.37795 -49.35535,-38.97378 -12.55629,0.40416 -43.10784,3.23272 -43.10784,3.23272 z"
       id="path845-56-1"
       inkscape:connector-curvature="0"
       sodipodi:nodetypes="cscccc" />
    <path
       style="fill:#ff5556;fill-opacity:1;stroke:none;stroke-width:0.25338653px;stroke-linecap:butt;stroke-linejoin:miter;stroke-opacity:1"
       d="m -405.50604,168.83585 c 166.28942,-68.78146 190.68962,151.0615 78.51882,192.08719 -99.43609,36.36806 -272.97893,-111.65363 -78.51882,-192.08719 z"
       id="path817"
       inkscape:connector-curvature="0"
       sodipodi:nodetypes="sss" />
  </g>
</svg>
